<?xml version="1.0" encoding="UTF-8"?><svg id="Layer_1" xmlns="http://www.w3.org/2000/svg" viewBox="0 0 1197.81 892.81"><path d="m1197.81,563.88c-23.01,4.95-46.01,9.94-69.03,14.84-38.74,8.25-77.49,16.42-116.23,24.65-20.91,4.44-41.81,8.9-62.71,13.4-3.07.66-4.46.31-5.21-3.47-3.82-19.34-8.05-38.61-12.34-57.85-.58-2.61.56-3.51,2.23-4.8,26.05-20.1,52.06-40.25,78.08-60.38.76-.59,1.79-.93,1.85-2.78-7.71,1.57-15.27,3.05-22.8,4.64-22.05,4.67-44.12,9.28-66.12,14.21-3.18.71-3.71-.43-4.22-2.82-4.71-22.04-9.41-44.07-14.22-66.09-.63-2.89.51-3.83,3.08-4.37,39.9-8.36,79.8-16.74,119.69-25.19,41.18-8.73,82.35-17.49,123.49-26.42,4.28-.93,5.85-.56,6.8,4.31,3.78,19.34,8.17,38.57,12.42,57.81.73,3.29-.08,5.43-2.86,7.55-24.06,18.33-47.99,36.8-71.96,55.25-.88.68-1.66,1.49-3.65,3.3,10.8-2.27,20.15-4.22,29.48-6.2,18-3.82,36.02-7.52,53.95-11.61,4.18-.95,5.32.37,6.07,4.07,4.3,20.94,8.76,41.85,13.19,62.77.16.76.65,1.46.99,2.18v3Z"/><path d="m0,573.88c2.61-9.09,3.36-18.52,4.91-27.8,4.16-24.85,8.03-49.75,11.95-74.63,2.45-15.56,4.95-31.11,7.07-46.71.51-3.75,2.11-4.26,5.17-3.77,15.57,2.48,31.17,4.72,46.68,7.5,4.35.78,10.7-.93,12.57,3.34,1.52,3.47-.87,8.66-1.57,13.09-3.38,21.46-6.71,42.93-10.23,64.37-.43,2.62-.11,3.39,2.64,3.76,7.56,1,15.09,2.27,22.59,3.71,3.08.59,3.77-.88,4.16-3.32,3-19.01,6.03-38.01,9.04-57.01.68-4.26,1.49-8.5,1.95-12.77.24-2.24,1.02-2.77,3.17-2.43,18.99,3.04,37.99,6.06,57.01,8.92,3.63.54,4.44,2.07,3.87,5.53-3.6,21.76-6.91,43.57-10.63,65.3-.81,4.71-.47,6.86,5.08,7.3,7.41.58,14.73,2.32,22.08,3.58,3.36.57,5.12.22,5.75-4.18,3.66-25.27,7.87-50.47,11.77-75.71.51-3.32,1.79-4.52,5.19-3.96,18.98,3.11,37.97,6.11,56.96,9.09,2.37.37,2.9,1.49,2.53,3.77-5.57,34.38-11.08,68.78-16.57,103.17-2.72,17.04-5.57,34.07-7.93,51.16-.54,3.95-2.21,4.07-5.14,3.6-15.23-2.44-30.46-4.85-45.69-7.28-24.4-3.89-48.81-7.77-73.21-11.66-28.5-4.54-57-9.07-85.5-13.62C30.45,583.79,15.23,581.33,0,578.88c0-1.67,0-3.33,0-5Z"/><path d="m670.89,0c.67,15.95,1.33,31.89,2,47.84.18,4.31.31,8.62.59,12.93.19,2.84-.53,4.12-3.8,4.17-13.81.18-27.61.72-41.41,1.03-8.14.19-8.04.11-7.78,7.98.53,16.29.86,32.59,1.44,48.88.89,24.76,1.97,49.51,2.91,74.27.73,19.27,1.27,38.56,2.12,57.82.17,3.8-1.04,4.86-4.68,4.95-22.28.58-44.56,1.38-66.84,2.06-6.3.19-6.23.12-6.4-6.13-.68-24.28-1.17-48.56-2.2-72.82-.79-18.61-1.48-37.21-1.96-55.83-.47-18.29-1.33-36.56-1.92-54.84-.08-2.64-1.02-3.38-3.63-3.25-15.28.73-30.56,1.23-45.84,1.99-3.29.16-4.39-.96-4.46-4.15-.28-13.31-.68-26.61-1.12-39.91-.19-5.81-.46-11.62-.89-17.42-.21-2.86.8-3.58,3.6-3.62,12.31-.17,24.62-.5,36.92-.95,24.76-.91,49.51-1.99,74.26-2.9,12.96-.47,25.94-.72,38.91-1.09,1.45-.04,3.04.39,4.19-.99C653.56,0,662.23,0,670.89,0Z"/><path d="m500.7,270.89c-.24,1.45-1.55,1.62-2.53,2.06-21.63,9.68-43.3,19.26-64.87,29.06-3.38,1.54-4.01-.41-4.98-2.59-8.69-19.51-17.39-39.02-26.07-58.53-15.56-34.99-31.09-69.99-46.64-104.98-9.62-21.64-19.16-43.31-28.97-64.86-1.49-3.28-.42-4.15,2.3-5.35,21.38-9.41,42.71-18.92,64.02-28.48,2.25-1.01,3.38-.98,4.51,1.57,17.65,39.85,35.42,79.64,53.15,119.46,15.91,35.72,31.8,71.45,47.69,107.17.81,1.81,1.59,3.64,2.39,5.48Z"/><path d="m746.87,291.78c-.57-.21-1.19-.45-1.81-.67-21.94-7.57-43.84-15.27-65.87-22.58-4.27-1.42-4.17-3.18-2.95-6.69,19.81-57.19,39.54-114.4,59.25-171.62,7.24-21,14.46-42.01,21.52-63.07,1.11-3.32,2.34-4.25,5.87-3,21.56,7.65,43.17,15.14,64.84,22.49,3.32,1.13,4.32,2.17,3.07,5.79-27.16,78.51-54.18,157.06-81.32,235.57-.46,1.32-.09,3.59-2.59,3.79Z"/><path d="m900.55,518.7c-18.2-78.23-60.22-140.66-126.11-186.67-46.84-32.71-99.17-50.3-156.09-53.79-27.81-1.7-55.51.3-82.83,6.32-50.05,11.03-94.65,32.95-133.85,66.04-29.19,24.64-53.02,53.64-71.27,87.09-31.36,57.44-42.8,118.83-35.51,183.84,3.58,31.94,12.05,62.51,25.57,91.58,29.28,62.94,74.58,111,135.73,143.88,34.42,18.5,71.15,29.81,110.08,34.01,4.53.49,9.31-.26,13.65,1.8h40.99c.8-1.16,2.02-.97,3.17-1,9.66-.28,19.21-1.7,28.69-3.36,44.96-7.88,86.24-24.89,123.59-51.12,40.57-28.49,72.54-64.68,95.82-108.5,21.27-40.03,32.8-82.74,35.28-127.95,1.52-27.72-.63-55.21-6.91-82.19Zm-209.67,257.63c-16.16-.16-32.32-.07-48.48-.07-43.48,0-86.96-.06-130.43.1-4.37.02-5.95-1.06-5.56-5.54.39-4.46.35-9.01.01-13.48-.32-4.24.81-5.8,5.42-5.63,9.78.37,19.62.54,29.27-1.86,12.3-3.06,19.69-11.58,20.74-24.26.61-7.29.96-14.58.96-21.91-.06-76.12,0-152.25-.09-228.37,0-6.96-.35-14-1.38-20.87-2.59-17.27-10.62-18.24-24.15-16.03-8.19,1.34-16.04,4.17-23.89,6.81-3.65,1.23-5.65,1.55-5.69-3.43-.04-4.78-.93-9.57-1.73-14.31-.68-4.01.77-5.59,4.73-6.78,37.21-11.14,73.82-23.95,108.9-40.79,4.03-1.93,8.03-3.91,12-5.96,1.75-.9,3.19-.68,5.1-.13,5.32,1.53,6.87,4.53,6.85,10.11-.23,54.97-.14,109.94-.14,164.91,0,54.64,0,109.27,0,163.91,0,5.65.21,11.31,1.4,16.84,2.66,12.39,11.14,19.69,23.74,21.33,7.64,1,15.28,1.11,22.91.83,3.89-.14,4.82,1.15,4.59,4.77-.31,4.98-.38,10.01.02,14.98.34,4.21-1.45,4.88-5.11,4.84Z"/><path d="m363.43,272.59c-12.11-32.7-34.21-57.8-62.66-77.41-21.59-14.89-45.17-24.32-71.89-23.96-3.66,0-7.37-.37-10.98.06-25.49,3.04-46.85,14.66-64.25,33.03-19.21,20.28-37.55,41.39-56.33,62.09-1.91,2.11-2.23,3.34.2,5.47,10.88,9.54,21.55,19.32,32.31,29,28.81,25.92,57.63,51.84,86.45,77.76,22.26,20.02,44.59,39.97,66.7,60.16,3.25,2.97,4.71,2.18,7.21-.63,17.58-19.75,35.41-39.29,52.98-59.05,27.95-31.43,34.82-67.18,20.26-106.51Zm-70.7,67.07c-1.85,2.45-3,.55-4.33-.64-12.24-11-24.52-21.95-36.75-32.97-17.91-16.14-35.8-32.3-53.67-48.48-3.75-3.4-3.7-3.68.08-7.22,8.48-7.93,18.12-10.38,29.36-6.74,11.41,3.69,21.24,10.04,30.52,17.37,12.83,10.14,24.7,21.26,34.25,34.65,5.97,8.38,8.91,16.37,8.88,23.78.27,8.02-3.79,14.24-8.36,20.26Z"/><path d="m1049.73,225.76c-7.22-30.28-24.56-52.94-52.75-66.18-29.82-14.01-60.18-12.23-89.57,1.47-40.83,19.03-70.46,49.79-89.94,90.22-8.53,17.71-11.9,36.75-9.29,56.2,4.65,34.65,23.2,60.08,54.51,75.39,29.78,14.56,59.99,12.33,89.39-1.5,31.75-14.93,56.65-38.12,76.62-66.68,14.27-20.41,23.1-42.83,23.26-70.99.29-4.2-.61-11.14-2.23-17.92Zm-71.74,24.01c-3.25,8.17-8.18,15.23-13.91,21.75-14.34,16.29-29.61,31.56-48.28,43-3.56,2.18-7.36,3.86-11.38,4.98-11.72,3.26-25.04-6.87-24.97-18.94.3-6.17,2.78-11.59,5.95-16.72,8.67-14.01,20.25-25.5,32.2-36.63,6.7-6.24,13.78-12.05,21.52-17,4.21-2.69,8.63-4.96,13.34-6.69,8.19-2.99,15.3-1.67,21.45,4.69,6.12,6.34,7.31,13.43,4.07,21.56Z"/></svg>